<?xml version="1.0" encoding="utf-8"?>
<svg viewBox="0 0 500 500" xmlns="http://www.w3.org/2000/svg">
  <path d="M521.119 630.408V579.748C521.119 563.955 508.317 551.152 492.524 551.152H456.372V792.094H502.714H521.119H578.3V687.589C578.3 671.796 565.497 658.993 549.704 658.993C533.922 659.004 521.119 646.201 521.119 630.408Z" fill="#B6D5D0" transform="matrix(1, 0, 0, 1, -118.055313, -153.037506)"/>
  <path d="M899.901 55.9502H410.181V311.303H899.901V55.9502Z" fill="#EDF6F5" transform="matrix(1, 0, 0, 1, -118.055313, -153.037506)"/>
  <path d="M609.583 265.576H606.625V253.496H609.583V265.576ZM609.583 241.417H606.625V229.326H609.583V241.417ZM609.583 217.247H606.625V205.168H609.583V217.247ZM609.583 193.077H606.625V180.998H609.583V193.077ZM609.583 168.918H606.625V156.839H609.583V168.918Z" fill="#B6D5D0" transform="matrix(1, 0, 0, 1, -118.055313, -153.037506)"/>
  <path d="M614.02 285.049H606.625V277.665H609.583V282.091H614.02V285.049Z" fill="#B6D5D0" transform="matrix(1, 0, 0, 1, -118.055313, -153.037506)"/>
  <path d="M622.948 325.097H365.026C360.978 325.097 357.696 321.815 357.696 317.767V191.111C357.696 187.063 360.978 183.781 365.026 183.781H622.948C626.996 183.781 630.278 187.063 630.278 191.111V317.778C630.267 321.815 626.996 325.097 622.948 325.097Z" fill="#B2E5E0" transform="matrix(1, 0, 0, 1, -118.055313, -153.037506)"/>
  <path d="M631.822 333.973H373.9C369.852 333.973 366.57 330.691 366.57 326.643V199.976C366.57 195.928 369.852 192.646 373.9 192.646H631.822C635.87 192.646 639.152 195.928 639.152 199.976V326.643C639.141 330.691 635.87 333.973 631.822 333.973Z" fill="#3FB8A9" transform="matrix(1, 0, 0, 1, -118.055313, -153.037506)"/>
  <path opacity="0.67" d="M386.032 323.618H617.723C617.723 323.618 610.004 269.558 597.838 253.128C585.683 236.698 575.493 259.367 562.021 286.322C548.549 313.266 520.612 325.432 500.242 298.477C479.861 271.533 470.664 262.983 447.984 277.449C425.304 291.914 407.557 279.748 400.001 261.019C392.444 242.29 386.032 242.614 386.032 242.614V323.618Z" fill="white" transform="matrix(1, 0, 0, 1, -118.055313, -153.037506)"/>
  <path opacity="0.28" d="M386.032 323.619C386.032 323.619 396.708 324.115 405.258 312.284C413.807 300.453 416.107 282.382 425.304 276.791C434.501 271.199 443.051 276.791 455.864 300.205C468.678 323.619 488.724 312.608 497.273 289.28C505.823 265.953 509.763 254.769 523.894 253.463C538.024 252.146 546.897 269.569 551.831 286.323C556.764 303.087 569.578 308.668 582.391 301.77C595.205 294.872 617.723 323.63 617.723 323.63H386.032V323.619Z" fill="white" transform="matrix(1, 0, 0, 1, -118.055313, -153.037506)"/>
  <path d="M390.469 213.037C388.018 213.037 386.032 211.05 386.032 208.6C386.032 206.149 388.018 204.163 390.469 204.163C392.919 204.163 394.906 206.149 394.906 208.6C394.906 211.05 392.919 213.037 390.469 213.037Z" fill="white" transform="matrix(1, 0, 0, 1, -118.055313, -153.037506)"/>
  <path d="M498.925 205.968H405.917V211.225H498.925V205.968Z" fill="white" transform="matrix(1, 0, 0, 1, -118.055313, -153.037506)"/>
  <path d="M390.469 229.056C388.018 229.056 386.032 227.07 386.032 224.619C386.032 222.169 388.018 220.183 390.469 220.183C392.919 220.183 394.906 222.169 394.906 224.619C394.906 227.07 392.919 229.056 390.469 229.056Z" fill="white" transform="matrix(1, 0, 0, 1, -118.055313, -153.037506)"/>
  <path d="M477.562 221.985H405.917V227.242H477.562V221.985Z" fill="white" transform="matrix(1, 0, 0, 1, -118.055313, -153.037506)"/>
  <path d="M525.167 86.3486H446.289V159.095H525.167V86.3486Z" fill="white" transform="matrix(1, 0, 0, 1, -118.055313, -153.037506)"/>
  <g opacity="0.4" transform="matrix(1, 0, 0, 1, -118.055313, -153.037506)">
    <path opacity="0.4" d="M764.792 636.855L760.344 634.383C757.527 632.818 755.789 629.838 755.843 626.621C755.854 626.254 755.865 625.898 755.865 625.531C755.865 625.164 755.854 624.808 755.843 624.441C755.789 621.224 757.527 618.245 760.344 616.679L764.792 614.207C768.311 612.253 770.038 608.162 769.013 604.276C768.991 604.233 768.991 604.19 768.97 604.146C767.933 600.271 764.371 597.594 760.366 597.659L755.271 597.745C752.011 597.799 749.031 596.018 747.434 593.179C747.11 592.618 746.786 592.056 746.473 591.506C744.789 588.71 744.735 585.223 746.419 582.416L749.031 578.077C751.104 574.622 750.553 570.207 747.714 567.368C747.682 567.336 747.639 567.293 747.606 567.26C744.767 564.421 740.352 563.871 736.898 565.943L732.558 568.556C729.752 570.24 726.265 570.175 723.469 568.502C722.919 568.178 722.357 567.854 721.796 567.541C718.957 565.954 717.165 562.975 717.23 559.704L717.316 554.609C717.381 550.593 714.704 547.042 710.828 546.005C710.785 545.984 710.742 545.984 710.699 545.962C706.813 544.937 702.721 546.664 700.767 550.183L698.295 554.63C696.73 557.448 693.751 559.186 690.534 559.132C690.167 559.121 689.811 559.11 689.444 559.11C689.077 559.11 688.72 559.121 688.353 559.132C685.137 559.186 682.157 557.448 680.592 554.63L678.12 550.183C676.166 546.664 672.075 544.937 668.189 545.962C668.145 545.984 668.102 545.984 668.059 546.005C664.184 547.042 661.507 550.604 661.571 554.609L661.658 559.704C661.712 562.964 659.93 565.943 657.091 567.541C656.53 567.865 655.969 568.189 655.418 568.502C652.622 570.186 649.136 570.24 646.329 568.556L641.989 565.943C638.535 563.882 634.12 564.421 631.281 567.26C631.248 567.293 631.205 567.336 631.173 567.368C628.334 570.207 627.783 574.622 629.856 578.077L632.468 582.416C634.152 585.223 634.088 588.71 632.414 591.506C632.09 592.056 631.767 592.618 631.454 593.179C629.867 596.018 626.887 597.81 623.617 597.745L618.521 597.659C614.506 597.594 610.954 600.271 609.918 604.146C609.896 604.19 609.896 604.233 609.875 604.276C608.849 608.162 610.576 612.253 614.095 614.207L618.543 616.679C621.36 618.245 623.098 621.224 623.044 624.441C623.034 624.808 623.023 625.164 623.023 625.531C623.023 625.898 623.034 626.254 623.044 626.621C623.098 629.838 621.36 632.818 618.543 634.383L614.095 636.855C610.576 638.809 608.849 642.9 609.875 646.786C609.896 646.829 609.896 646.873 609.918 646.916C610.954 650.791 614.516 653.468 618.521 653.403L623.617 653.317C626.877 653.263 629.856 655.044 631.454 657.883C631.777 658.445 632.101 659.006 632.414 659.557C634.098 662.352 634.152 665.839 632.468 668.646L629.856 672.985C627.794 676.44 628.334 680.855 631.173 683.694C631.205 683.726 631.248 683.769 631.281 683.802C634.12 686.641 638.535 687.191 641.989 685.119L646.329 682.507C649.136 680.823 652.622 680.887 655.418 682.56C655.969 682.884 656.53 683.208 657.091 683.521C659.93 685.108 661.722 688.087 661.658 691.358L661.571 696.453C661.507 700.469 664.184 704.021 668.059 705.057C668.102 705.078 668.145 705.079 668.189 705.1C672.075 706.126 676.166 704.398 678.12 700.879L680.592 696.432C682.157 693.614 685.137 691.876 688.353 691.93C688.72 691.941 689.077 691.952 689.444 691.952C689.811 691.952 690.167 691.941 690.534 691.93C693.751 691.876 696.73 693.614 698.295 696.432L700.767 700.879C702.721 704.398 706.813 706.126 710.699 705.1C710.742 705.079 710.785 705.078 710.828 705.057C714.704 704.021 717.381 700.458 717.316 696.453L717.23 691.358C717.176 688.098 718.957 685.119 721.796 683.521C722.357 683.197 722.919 682.873 723.469 682.56C726.265 680.876 729.752 680.823 732.558 682.507L736.898 685.119C740.352 687.181 744.767 686.641 747.606 683.802C747.639 683.769 747.682 683.726 747.714 683.694C750.553 680.855 751.104 676.44 749.031 672.985L746.419 668.646C744.735 665.839 744.8 662.352 746.473 659.557C746.797 659.006 747.121 658.445 747.434 657.883C749.021 655.044 752 653.252 755.271 653.317L760.366 653.403C764.382 653.468 767.933 650.791 768.97 646.916C768.991 646.873 768.991 646.829 769.013 646.786C770.038 642.9 768.311 638.798 764.792 636.855ZM689.422 674.939C662.133 674.939 640.003 652.821 640.003 625.52C640.003 598.231 662.122 576.101 689.422 576.101C716.712 576.101 738.841 598.22 738.841 625.52C738.83 652.821 716.712 674.939 689.422 674.939Z" fill="#F4D7C9"/>
    <path opacity="0.4" d="M710.992 631.758C714.246 619.878 707.254 607.61 695.374 604.356C683.494 601.101 671.225 608.094 667.971 619.974C664.717 631.854 671.709 644.122 683.589 647.377C695.469 650.631 707.738 643.638 710.992 631.758Z" fill="#F4D7C9"/>
  </g>
  <path d="M923.833 495.505V480.015L909.886 476.409L899.199 463.671L901.984 456.05L816.855 358.777H461.251C457.764 358.777 454.936 361.606 454.936 365.092V376.092L455.022 376.157C455.238 377.927 455.961 379.709 457.278 381.274L551.614 493.713C558.469 501.874 568.584 506.602 579.249 506.602H913.966C919.439 506.602 923.282 502.457 923.833 497.772C923.919 497.038 923.919 496.272 923.833 495.505Z" fill="#B6D5D0" transform="matrix(1, 0, 0, 1, -118.055313, -153.037506)"/>
  <path d="M913.978 491.124H579.25C568.585 491.124 558.47 486.406 551.615 478.235L457.268 365.806C451.86 359.362 456.437 349.527 464.857 349.527H799.584C810.25 349.527 820.364 354.245 827.219 362.416L921.566 474.845C926.975 481.29 922.387 491.124 913.978 491.124Z" fill="white" transform="matrix(1, 0, 0, 1, -118.055313, -153.037506)"/>
  <path d="M617.873 434.167H542.611C540.841 434.167 539.157 433.379 538.023 432.019L501.116 387.738C499.863 386.238 500.932 383.971 502.875 383.971H578.137C579.907 383.971 581.591 384.759 582.725 386.119L619.633 430.399C620.885 431.9 619.816 434.167 617.873 434.167Z" fill="#DCECEB" transform="matrix(1, 0, 0, 1, -118.055313, -153.037506)"/>
  <path d="M581.332 467.145H570.235C568.465 467.145 566.791 466.368 565.658 465.008L552.013 448.719C550.761 447.218 551.819 444.951 553.773 444.951H564.87C566.64 444.951 568.313 445.728 569.447 447.089L583.092 463.378C584.344 464.868 583.286 467.145 581.332 467.145Z" fill="#B2E5E0" transform="matrix(1, 0, 0, 1, -118.055313, -153.037506)"/>
  <path d="M613.416 467.145H602.319C600.549 467.145 598.875 466.368 597.742 465.008L584.097 448.719C582.845 447.218 583.903 444.951 585.857 444.951H596.954C598.724 444.951 600.397 445.728 601.531 447.089L615.176 463.378C616.428 464.868 615.37 467.145 613.416 467.145Z" fill="#B2E5E0" transform="matrix(1, 0, 0, 1, -118.055313, -153.037506)"/>
  <path d="M645.498 467.145H634.401C632.631 467.145 630.958 466.368 629.824 465.008L616.18 448.719C614.927 447.218 615.985 444.951 617.939 444.951H629.036C630.807 444.951 632.48 445.728 633.613 447.089L647.258 463.378C648.51 464.868 647.452 467.145 645.498 467.145Z" fill="#B2E5E0" transform="matrix(1, 0, 0, 1, -118.055313, -153.037506)"/>
  <path d="M705.129 405.052H620.108C618.349 405.052 616.675 404.275 615.542 402.925L602.815 387.759C601.563 386.258 602.621 383.98 604.574 383.98H689.595C691.354 383.98 693.028 384.758 694.161 386.107L706.888 401.274C708.141 402.774 707.083 405.052 705.129 405.052Z" fill="#DCECEB" transform="matrix(1, 0, 0, 1, -118.055313, -153.037506)"/>
  <path d="M487.591 630.408V579.748C487.591 563.955 474.788 551.152 458.995 551.152H422.843V792.094H469.186H487.591H544.771V687.589C544.771 671.796 531.969 658.993 516.176 658.993C500.394 659.004 487.591 646.201 487.591 630.408Z" fill="#DCECEB" transform="matrix(1, 0, 0, 1, -118.055313, -153.037506)"/>
  <path d="M941.072 150.264L594.027 156.179L587.129 150.264V36.2266H941.072L947.97 42.1421L941.072 150.264Z" fill="#B6D5D0" transform="matrix(1, 0, 0, 1, -118.055313, -153.037506)"/>
  <path d="M947.971 42.1426H594.028V156.18H947.971V42.1426Z" fill="#DCECEB" transform="matrix(1, 0, 0, 1, -118.055313, -153.037506)"/>
  <path d="M461.521 551.154H458.563V431.406C458.563 421.227 466.843 412.947 477.023 412.947H489.232V415.905H477.023C468.473 415.905 461.521 422.857 461.521 431.406V551.154Z" fill="#3FB8A9" transform="matrix(1, 0, 0, 1, -118.055313, -153.037506)"/>
  <path d="M473.46 552.397H470.502V432.649C470.502 427.9 474.367 424.046 479.106 424.046H500.577V427.004H479.106C475.986 427.004 473.46 429.54 473.46 432.649V552.397Z" fill="#3FB8A9" transform="matrix(1, 0, 0, 1, -118.055313, -153.037506)"/>
  <path d="M473.061 619.753C473.061 622.343 470.956 624.448 468.365 624.448C465.774 624.448 463.669 622.343 463.669 619.753C463.669 617.162 465.774 615.057 468.365 615.057C470.966 615.057 473.061 617.162 473.061 619.753Z" fill="#B6D5D0" transform="matrix(1, 0, 0, 1, -118.055313, -153.037506)"/>
  <path d="M468.376 602.365C470.969 602.365 473.072 600.263 473.072 597.669C473.072 595.076 470.969 592.974 468.376 592.974C465.783 592.974 463.68 595.076 463.68 597.669C463.68 600.263 465.783 602.365 468.376 602.365Z" fill="#B6D5D0" transform="matrix(1, 0, 0, 1, -118.055313, -153.037506)"/>
  <path d="M468.376 580.279C470.97 580.279 473.072 578.177 473.072 575.583C473.072 572.99 470.97 570.888 468.376 570.888C465.783 570.888 463.681 572.99 463.681 575.583C463.681 578.177 465.783 580.279 468.376 580.279Z" fill="#B6D5D0" transform="matrix(1, 0, 0, 1, -118.055313, -153.037506)"/>
  <path d="M201.991 689.49H0.946777C0.946777 689.49 14.775 658.638 46.6847 671.409C46.6847 671.409 58.3863 639.499 86.0428 643.223C113.699 646.947 119.021 666.205 119.021 666.205C119.021 666.205 148.804 654.385 177.529 678.328C177.529 678.328 200.933 675.662 201.991 689.49Z" fill="#EDF6F5" transform="matrix(1, 0, 0, 1, -118.055313, -153.037506)"/>
</svg>